<?xml version="1.0" encoding="UTF-8"?>
<svg version="1.1" xmlns="http://www.w3.org/2000/svg" width="300" height="168">
<path d="M0 0 C99 0 198 0 300 0 C300 55.44 300 110.88 300 168 C201 168 102 168 0 168 C0 112.56 0 57.12 0 0 Z " fill="#F1F1F0" transform="translate(0,0)"/>
<path d="M0 0 C0.66 0.33 1.32 0.66 2 1 C2 1.66 2 2.32 2 3 C3.65 3 5.3 3 7 3 C7 3.99 7 4.98 7 6 C7.66 6 8.32 6 9 6 C9 7.65 9 9.3 9 11 C9.99 11 10.98 11 12 11 C12.33 10.01 12.66 9.02 13 8 C13.495 8.99 13.495 8.99 14 10 C15.65 10 17.3 10 19 10 C19 10.66 19 11.32 19 12 C15.86501708 13.85776765 13.62528568 14.20140476 10 14 C10 14.66 10 15.32 10 16 C13.63 16 17.26 16 21 16 C21.33 15.01 21.66 14.02 22 13 C23.65 13 25.3 13 27 13 C25.87994369 16.36016893 24.62788203 17.69064913 22 20 C21.34 20 20.68 20 20 20 C19.505 21.485 19.505 21.485 19 23 C18.34 23 17.68 23 17 23 C17 23.66 17 24.32 17 25 C18.98 24.67 20.96 24.34 23 24 C22.505 25.485 22.505 25.485 22 27 C23.31351921 26.18914873 24.62578668 25.37626942 25.9375 24.5625 C27.03384766 23.88380859 27.03384766 23.88380859 28.15234375 23.19140625 C29.93899809 22.13135967 29.93899809 22.13135967 31 21 C31.04320247 18.66706666 31.04022391 16.3329866 31 14 C31 13.01 31 12.02 31 11 C33.14978703 13.32893595 33.96248682 14.77961005 34.5 17.9375 C33.8112412 22.15614764 32.33125148 23.36275925 29 26 C23.52926063 29.53766056 17.78099203 30.91396781 11.44140625 32.19140625 C10.63574219 32.45824219 9.83007812 32.72507813 9 33 C8.67 33.99 8.34 34.98 8 36 C7.67 35.67 7.34 35.34 7 35 C5.39735886 34.92701998 3.79166268 34.91636169 2.1875 34.9375 C0.87845703 34.95103516 0.87845703 34.95103516 -0.45703125 34.96484375 C-1.71580078 34.98224609 -1.71580078 34.98224609 -3 35 C-4.32 35 -5.64 35 -7 35 C-8.15048828 35.24556641 -8.15048828 35.24556641 -9.32421875 35.49609375 C-12.53345905 36.10046163 -15.54908007 36.09546384 -18.8125 36.0625 C-19.97394531 36.05347656 -21.13539063 36.04445312 -22.33203125 36.03515625 C-23.21246094 36.02355469 -24.09289062 36.01195312 -25 36 C-25 35.34 -25 34.68 -25 34 C-25.99 34.66 -26.98 35.32 -28 36 C-30.6875 36.125 -30.6875 36.125 -33 36 C-33 35.34 -33 34.68 -33 34 C-33.78375 33.938125 -34.5675 33.87625 -35.375 33.8125 C-36.24125 33.544375 -37.1075 33.27625 -38 33 C-39.3125 30.4375 -39.3125 30.4375 -40 28 C-41.32 28 -42.64 28 -44 28 C-45.40432089 37.27329631 -45.40432089 37.27329631 -42.875 46.125 C-41.65692873 48.73515272 -42.12854163 50.31300337 -43 53 C-43.99 53.495 -43.99 53.495 -45 54 C-46.17847383 46.2020136 -47.23060692 38.39777292 -48.125 30.5625 C-48.21249512 29.81822754 -48.29999023 29.07395508 -48.39013672 28.30712891 C-49.72522817 16.32354142 -49.72522817 16.32354142 -47.90625 13.00390625 C-46.60416667 11.66927083 -45.30208333 10.33463542 -44 9 C-43.34 9.33 -42.68 9.66 -42 10 C-42.33 10.99 -42.66 11.98 -43 13 C-40.52733235 12.65555119 -40.52733235 12.65555119 -38 12 C-37.67 11.34 -37.34 10.68 -37 10 C-36.01 10 -35.02 10 -34 10 C-33.67 9.01 -33.34 8.02 -33 7 C-28.56575777 4.14941571 -25.2162083 3.6870275 -20 4 C-19.67 5.32 -19.34 6.64 -19 8 C-15.87802522 6.6910428 -15.87802522 6.6910428 -14 4 C-8.483379 0.32225267 -6.52355517 -0.31064548 0 0 Z M-35 31 C-34 33 -34 33 -34 33 Z " fill="#F9F5F4" transform="translate(157,12)"/>
<path d="M0 0 C0.33 0 0.66 0 1 0 C1.144375 1.11375 1.28875 2.2275 1.4375 3.375 C1.78372035 6.82142047 1.78372035 6.82142047 3 9 C3 9.99 3 10.98 3 12 C3.66 12.33 4.32 12.66 5 13 C4.67 15.31 4.34 17.62 4 20 C4.66 20.33 5.32 20.66 6 21 C5.80792969 22.1653125 5.61585937 23.330625 5.41796875 24.53125 C4.89246931 28.77244902 5.41262385 32.30342118 6.3125 36.5 C8.5269526 47.55954358 9.20978403 58.76531371 10 70 C11.65 70 13.3 70 15 70 C15 72.31 15 74.62 15 77 C15.92683594 77.13277344 16.85367188 77.26554687 17.80859375 77.40234375 C19.60490234 77.66724609 19.60490234 77.66724609 21.4375 77.9375 C22.63246094 78.11152344 23.82742187 78.28554687 25.05859375 78.46484375 C28 79 28 79 29 80 C37.73616467 80.46800882 46.35288679 79.11191352 55 78 C55 77.34 55 76.68 55 76 C57.97 75.505 57.97 75.505 61 75 C61.495 73.515 61.495 73.515 62 72 C62.66 72 63.32 72 64 72 C64.40137349 76.65593248 64.52203374 79.04915282 62.25 83.1875 C57.7222894 87.97692798 48.53071614 91.67180715 41.99462891 92.14526367 C39.5379462 92.16985694 37.08181517 92.18565554 34.625 92.1875 C33.77421875 92.19974609 32.9234375 92.21199219 32.046875 92.22460938 C27.50534602 92.23522042 24.17531431 91.95101051 20 90 C17.96135602 89.77357078 17.96135602 89.77357078 16 89.75 C12.51247534 89.35369038 11.91230066 88.92691722 9 86.5 C6.18204477 82.63591423 6.54166455 78.58335447 7 74 C6.34 73.67 5.68 73.34 5 73 C5.99 72.01 5.99 72.01 7 71 C7.75143721 65.01685847 6.75424127 58.77014685 5.9765625 52.828125 C5.87032562 51.98384949 5.76408875 51.13957397 5.65463257 50.26971436 C5.430237 48.49458258 5.20320166 46.71978266 4.97363281 44.9453125 C4.62778399 42.27152329 4.28971057 39.5968445 3.953125 36.921875 C2.88224131 28.47476841 1.75841447 20.05026053 0.35742188 11.65063477 C-0.17095421 7.73220637 -0.1338103 3.94740373 0 0 Z " fill="#E0E1DB" transform="translate(113,66)"/>
<path d="M0 0 C0 0.99 0 1.98 0 3 C0.598125 3.12375 1.19625 3.2475 1.8125 3.375 C4 4 4 4 7 6 C7.33 4.68 7.66 3.36 8 2 C10.31 2 12.62 2 15 2 C15.33 1.34 15.66 0.68 16 0 C16.33 1.32 16.66 2.64 17 4 C18.32 3.01 19.64 2.02 21 1 C21 1.99 21 2.98 21 4 C21.99 4 22.98 4 24 4 C24.33 3.34 24.66 2.68 25 2 C25.66 2.33 26.32 2.66 27 3 C26.34 4.32 25.68 5.64 25 7 C23.68 7 22.36 7 21 7 C22.32 7.33 23.64 7.66 25 8 C25 8.66 25 9.32 25 10 C25.66 10 26.32 10 27 10 C27.33 9.34 27.66 8.68 28 8 C28 8.66 28 9.32 28 10 C29.32 10 30.64 10 32 10 C32 9.34 32 8.68 32 8 C31.34 8 30.68 8 30 8 C29.34 6.68 28.68 5.36 28 4 C29.32 3.34 30.64 2.68 32 2 C31.67 3.32 31.34 4.64 31 6 C31.62648437 6.02578125 32.25296875 6.0515625 32.8984375 6.078125 C34.12433594 6.16320312 34.12433594 6.16320312 35.375 6.25 C36.18710938 6.29640625 36.99921875 6.3428125 37.8359375 6.390625 C40 7 40 7 41.2890625 9.046875 C41.52367187 9.69140625 41.75828125 10.3359375 42 11 C39.69 10.67 37.38 10.34 35 10 C35 10.66 35 11.32 35 12 C36.32 12.66 37.64 13.32 39 14 C38.01 14.33 37.02 14.66 36 15 C36 16.32 36 17.64 36 19 C37.98 19 39.96 19 42 19 C42 19.33 42 19.66 42 20 C37.38 20.33 32.76 20.66 28 21 C27.67 19.35 27.34 17.7 27 16 C21.72 16.33 16.44 16.66 11 17 C11 16.34 11 15.68 11 15 C9.35 15 7.7 15 6 15 C6 15.66 6 16.32 6 17 C6.66 17 7.32 17 8 17 C8 17.66 8 18.32 8 19 C0.25 20.125 0.25 20.125 -2 19 C-2 18.01 -2 17.02 -2 16 C-3.32 15.67 -4.64 15.34 -6 15 C-6 13.35 -6 11.7 -6 10 C-6.66 9.67 -7.32 9.34 -8 9 C-7.67 8.67 -7.34 8.34 -7 8 C-8.65 8 -10.3 8 -12 8 C-12 7.34 -12 6.68 -12 6 C-12.99 5.67 -13.98 5.34 -15 5 C-11.535 4.505 -11.535 4.505 -8 4 C-7.67 3.01 -7.34 2.02 -7 1 C-4.05697101 -0.96201933 -3.48011144 -1.16003715 0 0 Z " fill="#EFDDAA" transform="translate(132,22)"/>
<path d="M0 0 C0.33 0 0.66 0 1 0 C1.144375 1.11375 1.28875 2.2275 1.4375 3.375 C1.78372035 6.82142047 1.78372035 6.82142047 3 9 C3 9.99 3 10.98 3 12 C3.66 12.33 4.32 12.66 5 13 C4.67 15.31 4.34 17.62 4 20 C4.66 20.33 5.32 20.66 6 21 C5.80792969 22.1653125 5.61585937 23.330625 5.41796875 24.53125 C4.89246931 28.77244902 5.41262385 32.30342118 6.3125 36.5 C8.5269526 47.55954358 9.20978403 58.76531371 10 70 C11.65 70 13.3 70 15 70 C15 72.64 15 75.28 15 78 C13.68 77.67 12.36 77.34 11 77 C12.1678266 80.81413002 12.1678266 80.81413002 15.125 83.3125 C15.74375 83.539375 16.3625 83.76625 17 84 C17.66 82.68 18.32 81.36 19 80 C19.68707555 82.49064888 20 84.37886292 20 87 C21.65 87.66 23.3 88.32 25 89 C25 88.34 25 87.68 25 87 C32.26 87 39.52 87 47 87 C44.67807281 88.54795146 42.47761092 89.76119454 40 91 C39.67 91.33 39.34 91.66 39 92 C36.75268875 92.1264848 34.50083761 92.17582553 32.25 92.1875 C31.01765625 92.20167969 29.7853125 92.21585937 28.515625 92.23046875 C25.14445829 92.00947004 23.05144275 91.33370882 20 90 C17.96135602 89.77357078 17.96135602 89.77357078 16 89.75 C12.51247534 89.35369038 11.91230066 88.92691722 9 86.5 C6.18204477 82.63591423 6.54166455 78.58335447 7 74 C6.34 73.67 5.68 73.34 5 73 C5.99 72.01 5.99 72.01 7 71 C7.75143721 65.01685847 6.75424127 58.77014685 5.9765625 52.828125 C5.87032562 51.98384949 5.76408875 51.13957397 5.65463257 50.26971436 C5.430237 48.49458258 5.20320166 46.71978266 4.97363281 44.9453125 C4.62778399 42.27152329 4.28971057 39.5968445 3.953125 36.921875 C2.88224131 28.47476841 1.75841447 20.05026053 0.35742188 11.65063477 C-0.17095421 7.73220637 -0.1338103 3.94740373 0 0 Z " fill="#CDCBC4" transform="translate(113,66)"/>
<path d="M0 0 C7.86885246 -0.39344262 7.86885246 -0.39344262 12 3 C14.20800528 2.78282648 14.20800528 2.78282648 16 2 C16 2.66 16 3.32 16 4 C16.66 4 17.32 4 18 4 C18 5.65 18 7.3 18 9 C18.99 9 19.98 9 21 9 C21.33 8.01 21.66 7.02 22 6 C22.33 6.66 22.66 7.32 23 8 C24.65 8 26.3 8 28 8 C28 8.66 28 9.32 28 10 C24.86501708 11.85776765 22.62528568 12.20140476 19 12 C19 12.66 19 13.32 19 14 C22.63 14 26.26 14 30 14 C30.33 13.01 30.66 12.02 31 11 C32.65 11 34.3 11 36 11 C34.87994369 14.36016893 33.62788203 15.69064913 31 18 C30.34 18 29.68 18 29 18 C28.67 18.99 28.34 19.98 28 21 C27.34 21 26.68 21 26 21 C26 21.66 26 22.32 26 23 C27.98 22.67 29.96 22.34 32 22 C31.67 22.99 31.34 23.98 31 25 C32.31351921 24.18914873 33.62578668 23.37626942 34.9375 22.5625 C35.66839844 22.11003906 36.39929688 21.65757813 37.15234375 21.19140625 C38.93899809 20.13135967 38.93899809 20.13135967 40 19 C40.04320247 16.66706666 40.04022391 14.3329866 40 12 C40 11.01 40 10.02 40 9 C42.14978703 11.32893595 42.96248682 12.77961005 43.5 15.9375 C42.8112412 20.15614764 41.33125148 21.36275925 38 24 C32.53972063 27.82582768 28.46550205 28.34721416 21.90625 27.359375 C21.2771875 27.24078125 20.648125 27.1221875 20 27 C20 25.68 20 24.36 20 23 C20.66 22.67 21.32 22.34 22 22 C21.360625 21.731875 20.72125 21.46375 20.0625 21.1875 C18 20 18 20 17 17 C19.97 17.66 22.94 18.32 26 19 C24.35820641 15.87544942 24.35820641 15.87544942 21.8359375 15.26953125 C20.61777344 15.04330078 20.61777344 15.04330078 19.375 14.8125 C18.55773437 14.65394531 17.74046875 14.49539062 16.8984375 14.33203125 C16.27195313 14.22246094 15.64546875 14.11289062 15 14 C15.33 12.68 15.66 11.36 16 10 C15.01 10.99 14.02 11.98 13 13 C13.33 13.99 13.66 14.98 14 16 C14.66 16 15.32 16 16 16 C16 16.66 16 17.32 16 18 C13.69 18 11.38 18 9 18 C9 17.34 9 16.68 9 16 C7.35 16 5.7 16 4 16 C4.33 15.34 4.66 14.68 5 14 C6.32 14 7.64 14 9 14 C9.99 12.02 10.98 10.04 12 8 C13.32 8 14.64 8 16 8 C16 7.34 16 6.68 16 6 C14.329375 6.2784375 14.329375 6.2784375 12.625 6.5625 C9 7 9 7 7 6 C7 5.34 7 4.68 7 4 C4.69 3.34 2.38 2.68 0 2 C0 1.34 0 0.68 0 0 Z " fill="#F2D6A3" transform="translate(148,14)"/>
<path d="M0 0 C0 0.99 0 1.98 0 3 C0.598125 3.12375 1.19625 3.2475 1.8125 3.375 C4 4 4 4 7 6 C7.33 4.68 7.66 3.36 8 2 C10.31 2 12.62 2 15 2 C15.33 1.34 15.66 0.68 16 0 C16.33 1.32 16.66 2.64 17 4 C18.32 3.01 19.64 2.02 21 1 C21 1.99 21 2.98 21 4 C21.99 4 22.98 4 24 4 C24.33 3.34 24.66 2.68 25 2 C25.66 2.33 26.32 2.66 27 3 C26.34 4.32 25.68 5.64 25 7 C23.68 7 22.36 7 21 7 C22.32 7.33 23.64 7.66 25 8 C25 8.66 25 9.32 25 10 C24.07767578 9.98259766 24.07767578 9.98259766 23.13671875 9.96484375 C21.92435547 9.95130859 21.92435547 9.95130859 20.6875 9.9375 C19.88699219 9.92589844 19.08648437 9.91429687 18.26171875 9.90234375 C15.83138666 9.90342145 15.83138666 9.90342145 13 11 C12.34 10.67 11.68 10.34 11 10 C7.14098934 10.91212979 4.31338258 11.79107828 1 14 C1 14.66 1 15.32 1 16 C-1.31 15.67 -3.62 15.34 -6 15 C-6 13.35 -6 11.7 -6 10 C-6.66 9.67 -7.32 9.34 -8 9 C-7.67 8.67 -7.34 8.34 -7 8 C-8.65 8 -10.3 8 -12 8 C-12 7.34 -12 6.68 -12 6 C-12.99 5.67 -13.98 5.34 -15 5 C-11.535 4.505 -11.535 4.505 -8 4 C-7.67 3.01 -7.34 2.02 -7 1 C-4.05697101 -0.96201933 -3.48011144 -1.16003715 0 0 Z " fill="#D2B44F" transform="translate(132,22)"/>
<path d="M0 0 C0.66 0.33 1.32 0.66 2 1 C2 1.66 2 2.32 2 3 C3.65 3 5.3 3 7 3 C6.34 3.99 5.68 4.98 5 6 C4.17242187 5.53980469 4.17242187 5.53980469 3.328125 5.0703125 C0.79459879 3.90557059 -1.51171762 3.37942044 -4.25 2.875 C-5.58804688 2.62363281 -5.58804688 2.62363281 -6.953125 2.3671875 C-7.62859375 2.24601563 -8.3040625 2.12484375 -9 2 C-8.10664203 4.35785318 -8.10664203 4.35785318 -4.9375 5.125 C-3.4834375 5.558125 -3.4834375 5.558125 -2 6 C-2 6.66 -2 7.32 -2 8 C0.97 8 3.94 8 7 8 C7 8.66 7 9.32 7 10 C5.68 10 4.36 10 3 10 C3 10.66 3 11.32 3 12 C2.01 12 1.02 12 0 12 C-0.33 12.99 -0.66 13.98 -1 15 C-1.5775 14.62875 -2.155 14.2575 -2.75 13.875 C-5 12.70833333 -5 12.70833333 -7.25 13.875 C-8.11625 14.431875 -8.11625 14.431875 -9 15 C-9.33 14.01 -9.66 13.02 -10 12 C-13.3 12.33 -16.6 12.66 -20 13 C-23 8.375 -23 8.375 -23 5 C-23.66 5.66 -24.32 6.32 -25 7 C-27 8.1875 -27 8.1875 -29 9 C-29.66 8.67 -30.32 8.34 -31 8 C-31 7.34 -31 6.68 -31 6 C-27.36576791 3.67409146 -24.22911669 3.83734167 -20 4 C-19.67 5.32 -19.34 6.64 -19 8 C-15.87802522 6.6910428 -15.87802522 6.6910428 -14 4 C-8.483379 0.32225267 -6.52355517 -0.31064548 0 0 Z " fill="#F1ECDE" transform="translate(157,12)"/>
<path d="M0 0 C0.66 0 1.32 0 2 0 C2.42656834 4.94819269 2.60487682 7.05710378 -0.125 11.3125 C-3.01932234 14.01806218 -5.28069292 15.65471872 -9 17 C-11.375 16.6875 -11.375 16.6875 -13 16 C-12.01 15.67 -11.02 15.34 -10 15 C-10 14.01 -10 13.02 -10 12 C-11.65 12 -13.3 12 -15 12 C-15 11.34 -15 10.68 -15 10 C-15.54269531 10.16113281 -16.08539063 10.32226562 -16.64453125 10.48828125 C-23.92164564 12.06921323 -33.02043748 11.77107896 -40 9 C-41.74609375 7.42578125 -41.74609375 7.42578125 -43 6 C-41.52031676 6.14049518 -40.04125484 6.28754826 -38.5625 6.4375 C-37.32693359 6.55931641 -37.32693359 6.55931641 -36.06640625 6.68359375 C-34 7 -34 7 -33 8 C-24.26383533 8.46800882 -15.64711321 7.11191352 -7 6 C-7 5.34 -7 4.68 -7 4 C-5.02 3.67 -3.04 3.34 -1 3 C-0.67 2.01 -0.34 1.02 0 0 Z " fill="#CDCDCA" transform="translate(175,138)"/>
<path d="M0 0 C0.33 0 0.66 0 1 0 C1.08636719 0.69867187 1.17273438 1.39734375 1.26171875 2.1171875 C1.40222656 3.02726562 1.54273437 3.93734375 1.6875 4.875 C1.81511719 5.77992187 1.94273438 6.68484375 2.07421875 7.6171875 C2.77746013 10.19511518 2.77746013 10.19511518 5.24609375 11.1953125 C6.15488281 11.46085937 7.06367187 11.72640625 8 12 C8.87398437 12.33 9.74796875 12.66 10.6484375 13 C15.72706131 14.86264713 20.77259326 16.60602487 26 18 C25.67 18.99 25.34 19.98 25 21 C23.68 21 22.36 21 21 21 C20.67 21.33 20.34 21.66 20 22 C18.33382885 22.04063832 16.66611905 22.042721 15 22 C15 21.34 15 20.68 15 20 C14.21625 19.938125 13.4325 19.87625 12.625 19.8125 C11.75875 19.544375 10.8925 19.27625 10 19 C8.6875 16.4375 8.6875 16.4375 8 14 C6.68 14 5.36 14 4 14 C2.59567911 23.27329631 2.59567911 23.27329631 5.125 32.125 C6.34307127 34.73515272 5.87145837 36.31300337 5 39 C4.01 39.495 4.01 39.495 3 40 C1.82152617 32.2020136 0.76939308 24.39777292 -0.125 16.5625 C-0.21249512 15.81822754 -0.29999023 15.07395508 -0.39013672 14.30712891 C-0.88633063 9.85336424 -1.17378681 5.4894925 -1 1 C-0.67 0.67 -0.34 0.34 0 0 Z M13 17 C14 19 14 19 14 19 Z " fill="#CDCCC7" transform="translate(109,26)"/>
<path d="M0 0 C2.3125 0.125 2.3125 0.125 5 1 C7.93435117 5.24974997 8.83465967 8.89930203 8 14 C5.08911842 16.97703797 1.98155167 19.62705115 -2 21 C-2.99 20.67 -3.98 20.34 -5 20 C-4.01 19.34 -3.02 18.68 -2 18 C-3.65 18 -5.3 18 -7 18 C-7 17.34 -7 16.68 -7 16 C-6.34 16 -5.68 16 -5 16 C-4.87625 15.401875 -4.7525 14.80375 -4.625 14.1875 C-4 12 -4 12 -2 9 C0.125 8.3125 0.125 8.3125 2 8 C2.33 6.02 2.66 4.04 3 2 C2.01 2 1.02 2 0 2 C0 1.34 0 0.68 0 0 Z " fill="#F6F4EB" transform="translate(181,19)"/>
<path d="M0 0 C7.86885246 -0.39344262 7.86885246 -0.39344262 12 3 C14.20800528 2.78282648 14.20800528 2.78282648 16 2 C16 2.66 16 3.32 16 4 C16.66 4 17.32 4 18 4 C18 5.65 18 7.3 18 9 C18.99 9 19.98 9 21 9 C21.33 8.01 21.66 7.02 22 6 C22.33 6.66 22.66 7.32 23 8 C24.65 8 26.3 8 28 8 C28 8.66 28 9.32 28 10 C26.02 10.66 24.04 11.32 22 12 C22 11.34 22 10.68 22 10 C19.36 10.33 16.72 10.66 14 11 C14 11.99 14 12.98 14 14 C14 14.66 14 15.32 14 16 C14.66 16 15.32 16 16 16 C16 16.66 16 17.32 16 18 C13.69 18 11.38 18 9 18 C9 17.34 9 16.68 9 16 C7.35 16 5.7 16 4 16 C4.33 15.34 4.66 14.68 5 14 C6.32 14 7.64 14 9 14 C9.99 12.02 10.98 10.04 12 8 C13.32 8 14.64 8 16 8 C16 7.34 16 6.68 16 6 C14.329375 6.2784375 14.329375 6.2784375 12.625 6.5625 C9 7 9 7 7 6 C7 5.34 7 4.68 7 4 C4.69 3.34 2.38 2.68 0 2 C0 1.34 0 0.68 0 0 Z " fill="#E5D5B2" transform="translate(148,14)"/>
<path d="M0 0 C0.66 0 1.32 0 2 0 C1.67 1.32 1.34 2.64 1 4 C1.62648437 4.02578125 2.25296875 4.0515625 2.8984375 4.078125 C4.12433594 4.16320312 4.12433594 4.16320312 5.375 4.25 C6.18710938 4.29640625 6.99921875 4.3428125 7.8359375 4.390625 C10 5 10 5 11.2890625 7.046875 C11.52367187 7.69140625 11.75828125 8.3359375 12 9 C9.69 8.67 7.38 8.34 5 8 C5 8.66 5 9.32 5 10 C6.32 10.66 7.64 11.32 9 12 C8.01 12.33 7.02 12.66 6 13 C6 14.32 6 15.64 6 17 C7.98 17 9.96 17 12 17 C12 17.33 12 17.66 12 18 C7.38 18.33 2.76 18.66 -2 19 C-2.33 17.35 -2.66 15.7 -3 14 C-4.98 14 -6.96 14 -9 14 C-9.33 13.34 -9.66 12.68 -10 12 C-4.06 11.505 -4.06 11.505 2 11 C1.01 10.01 0.02 9.02 -1 8 C-0.01 8 0.98 8 2 8 C2 7.34 2 6.68 2 6 C1.34 6 0.68 6 0 6 C-0.66 4.68 -1.32 3.36 -2 2 C-1.34 1.34 -0.68 0.68 0 0 Z " fill="#8D6923" transform="translate(162,24)"/>
<path d="M0 0 C2 2 2 2 2.125 4.625 C2.08375 5.40875 2.0425 6.1925 2 7 C4.475 7.99 4.475 7.99 7 9 C7 8.34 7 7.68 7 7 C14.26 7 21.52 7 29 7 C26.67807281 8.54795146 24.47761092 9.76119454 22 11 C21.67 11.33 21.34 11.66 21 12 C18.75268875 12.1264848 16.50083761 12.17582553 14.25 12.1875 C13.01765625 12.20167969 11.7853125 12.21585938 10.515625 12.23046875 C7.14164151 12.00928539 5.05288351 11.33789649 2 10 C-0.13860256 9.70268244 -0.13860256 9.70268244 -2.1875 9.625 C-6 9 -6 9 -7.5 6.9375 C-7.665 6.298125 -7.83 5.65875 -8 5 C-5.69 5.66 -3.38 6.32 -1 7 C-1.66 6.34 -2.32 5.68 -3 5 C-2.34 4.34 -1.68 3.68 -1 3 C-0.67 2.01 -0.34 1.02 0 0 Z " fill="#C9CBC2" transform="translate(131,146)"/>
<path d="M0 0 C0.66 0 1.32 0 2 0 C5 5.75 5 5.75 5 8 C5.66 8 6.32 8 7 8 C7 8.99 7 9.98 7 11 C6.401875 10.690625 5.80375 10.38125 5.1875 10.0625 C2.91043228 8.89790296 2.91043228 8.89790296 0 8 C0 7.34 0 6.68 0 6 C-2.86742597 4.69186719 -2.86742597 4.69186719 -5.125 5.8125 C-7.14942042 6.86855201 -7.14942042 6.86855201 -8 9 C-11.4583282 10.42448301 -14.75653773 11.47049924 -18.3125 10.125 C-18.869375 9.75375 -19.42625 9.3825 -20 9 C-20.99 9 -21.98 9 -23 9 C-21.68 7.35 -20.36 5.7 -19 4 C-18.34 4.33 -17.68 4.66 -17 5 C-17.33 5.99 -17.66 6.98 -18 8 C-15.52733235 7.65555119 -15.52733235 7.65555119 -13 7 C-12.67 6.34 -12.34 5.68 -12 5 C-11.01 5 -10.02 5 -9 5 C-8.67 4.01 -8.34 3.02 -8 2 C-6.68 2 -5.36 2 -4 2 C-1.1490712 1.2981424 -1.1490712 1.2981424 0 0 Z " fill="#F2EAC7" transform="translate(132,17)"/>
<path d="M0 0 C0.33 0.66 0.66 1.32 1 2 C3.32156597 2.40729228 5.6568787 2.74438677 8 3 C7.814375 3.94875 7.62875 4.8975 7.4375 5.875 C6.71313368 8.89868793 6.71313368 8.89868793 8 11 C8.66 11.33 9.32 11.66 10 12 C11.125 14.0625 11.125 14.0625 12 16 C1.73684211 13.10526316 1.73684211 13.10526316 -1 9 C-1.875 5.375 -1.875 5.375 -2 2 C-1.34 1.34 -0.68 0.68 0 0 Z " fill="#F8F5F4" transform="translate(112,25)"/>
<path d="M0 0 C0 0.66 0 1.32 0 2 C1.65 2 3.3 2 5 2 C5 2.99 5 3.98 5 5 C2.05983283 7.94016717 -0.11147432 9.22407944 -4.1875 9.625 C-5.445625 9.74875 -6.70375 9.8725 -8 10 C-8 9.01 -8 8.02 -8 7 C-6.35 6.67 -4.7 6.34 -3 6 C-5.97 6 -8.94 6 -12 6 C-11.67 4.35 -11.34 2.7 -11 1 C-7.26513121 0.4254048 -3.78706732 0 0 0 Z " fill="#D8D9D4" transform="translate(160,148)"/>
<path d="M0 0 C0.33 0 0.66 0 1 0 C1.144375 1.11375 1.28875 2.2275 1.4375 3.375 C1.78372035 6.82142047 1.78372035 6.82142047 3 9 C3 9.99 3 10.98 3 12 C3.66 12.33 4.32 12.66 5 13 C4.67 15.31 4.34 17.62 4 20 C4.66 20.33 5.32 20.66 6 21 C5.690625 22.7015625 5.690625 22.7015625 5.375 24.4375 C4.97447287 27.592337 5.09502876 29.94235963 5.9375 33 C7.73383389 39.83571353 7.15479949 46.99102288 7 54 C6.67 54 6.34 54 6 54 C5.88930176 53.09870361 5.77860352 52.19740723 5.66455078 51.26879883 C5.24488803 47.85974857 4.82344699 44.45092721 4.40087891 41.04223633 C4.2198499 39.57910545 4.03948891 38.11589172 3.85986328 36.65258789 C2.8380325 28.33237359 1.74910362 20.04294408 0.375 11.77148438 C-0.16135232 7.80750549 -0.13537685 3.99361693 0 0 Z " fill="#CFCFC9" transform="translate(113,66)"/>
<path d="M0 0 C-0.66 0.66 -1.32 1.32 -2 2 C-1.67 2.33 -1.34 2.66 -1 3 C-0.95936168 4.66617115 -0.957279 6.33388095 -1 8 C-0.34 8 0.32 8 1 8 C1.33 7.34 1.66 6.68 2 6 C2.33 6.66 2.66 7.32 3 8 C3.99 8.66 4.98 9.32 6 10 C5.34 10 4.68 10 4 10 C3.34 11.32 2.68 12.64 2 14 C0.35 13.67 -1.3 13.34 -3 13 C-3.33 12.01 -3.66 11.02 -4 10 C-5.62332967 8.61423077 -7.28724465 7.27358732 -9 6 C-8.67 4.35 -8.34 2.7 -8 1 C-5.07175348 0.02391783 -3.04386724 -0.08226668 0 0 Z " fill="#F7EBDD" transform="translate(127,29)"/>
<path d="M0 0 C0.99 0.495 0.99 0.495 2 1 C2 1.66 2 2.32 2 3 C3.65 3.33 5.3 3.66 7 4 C6.01 4.33 5.02 4.66 4 5 C2.59567911 14.27329631 2.59567911 14.27329631 5.125 23.125 C6.34307127 25.73515272 5.87145837 27.31300337 5 30 C4.34 30.33 3.68 30.66 3 31 C1.3127774 20.66371396 0.48077476 10.45052509 0 0 Z " fill="#D3D3CF" transform="translate(109,35)"/>
<path d="M0 0 C2.73706304 2.22386372 3.88943111 3.4225847 4.5625 6.9375 C3.79284412 11.12784868 2.32438836 12.36819255 -1 15 C-5.18099124 17.5417115 -8.0285766 19 -13 19 C-15 16 -15 16 -14.625 13.8125 C-14.41875 13.214375 -14.2125 12.61625 -14 12 C-13.67 12.66 -13.34 13.32 -13 14 C-11.02 13.67 -9.04 13.34 -7 13 C-7.33 13.99 -7.66 14.98 -8 16 C-6.68648079 15.18914873 -5.37421332 14.37626942 -4.0625 13.5625 C-2.96615234 12.88380859 -2.96615234 12.88380859 -1.84765625 12.19140625 C-0.06100191 11.13135967 -0.06100191 11.13135967 1 10 C1.13568319 6.33655389 1.16461426 3.49384279 0 0 Z " fill="#DBD9C8" transform="translate(187,23)"/>
<path d="M0 0 C2.125 0.375 2.125 0.375 4 1 C4 1.66 4 2.32 4 3 C5.98 2.67 7.96 2.34 10 2 C10.99 3.485 10.99 3.485 12 5 C12.99 5 13.98 5 15 5 C14.34 6.32 13.68 7.64 13 9 C12.4225 8.62875 11.845 8.2575 11.25 7.875 C9 6.70833333 9 6.70833333 6.75 7.875 C5.88375 8.431875 5.88375 8.431875 5 9 C4.67 8.01 4.34 7.02 4 6 C2.35 6 0.7 6 -1 6 C-1.625 4.125 -1.625 4.125 -2 2 C-1.34 1.34 -0.68 0.68 0 0 Z " fill="#F1E3C2" transform="translate(143,18)"/>
<path d="M0 0 C0.66 0 1.32 0 2 0 C2.36090226 7.21804511 2.36090226 7.21804511 0.875 10.4375 C-1.63819253 12.53182711 -3.79122472 12.71477553 -7 13 C-7.33 11.35 -7.66 9.7 -8 8 C-6.02 7.34 -4.04 6.68 -2 6 C-1.855625 5.195625 -1.71125 4.39125 -1.5625 3.5625 C-1 1 -1 1 0 0 Z " fill="#B4B4B2" transform="translate(175,138)"/>
<path d="M0 0 C2.6875 1.4375 2.6875 1.4375 5 3 C4.01 3.33 3.02 3.66 2 4 C2.62655832 6.92393881 3.4161808 9.44829129 5 12 C5.99 12.33 6.98 12.66 8 13 C5 14 5 14 1.375 12.6875 C-2 11 -2 11 -3 9 C-3.13415472 6.3276379 -3.04318541 3.67749512 -3 1 C-2.01 0.67 -1.02 0.34 0 0 Z " fill="#A0A19A" transform="translate(123,140)"/>
<path d="M0 0 C0.433125 0.45375 0.86625 0.9075 1.3125 1.375 C3.10798342 3.20024334 3.10798342 3.20024334 6 5 C4.12175109 6.87824891 0.96064724 6.39102397 -1.5625 6.5625 C-2.76003906 6.64628906 -3.95757812 6.73007812 -5.19140625 6.81640625 C-6.11824219 6.87699219 -7.04507813 6.93757813 -8 7 C-7.67 5.35 -7.34 3.7 -7 2 C-7.99 2 -8.98 2 -10 2 C-10 2.66 -10 3.32 -10 4 C-11.32 3.67 -12.64 3.34 -14 3 C-10.4513865 0.63425766 -9.4235475 0.89134735 -5.3125 1.375 C-3.82169922 1.54128906 -3.82169922 1.54128906 -2.30078125 1.7109375 C-1.54152344 1.80632813 -0.78226563 1.90171875 0 2 C0 1.34 0 0.68 0 0 Z " fill="#DBC488" transform="translate(159,30)"/>
<path d="M0 0 C2.3125 0.125 2.3125 0.125 5 1 C7.99283581 5.33445186 8.31100973 8.81650457 8 14 C6.68 14.33 5.36 14.66 4 15 C4 13.68 4 12.36 4 11 C3.34 11 2.68 11 2 11 C1.875 4.25 1.875 4.25 3 2 C2.01 2 1.02 2 0 2 C0 1.34 0 0.68 0 0 Z " fill="#E0DFDA" transform="translate(181,19)"/>
<path d="M0 0 C1.796875 0.37109375 1.796875 0.37109375 4 1 C6.08234592 1.06743348 8.16668557 1.08514472 10.25 1.0625 C11.86648437 1.04896484 11.86648437 1.04896484 13.515625 1.03515625 C14.74539062 1.01775391 14.74539062 1.01775391 16 1 C14 3 14 3 11.9375 4 C9.83134399 4.84589942 9.83134399 4.84589942 9 7 C8.67 6.67 8.34 6.34 8 6 C6.31391034 5.92794489 4.62499341 5.91613932 2.9375 5.9375 C2.01839844 5.94652344 1.09929687 5.95554687 0.15234375 5.96484375 C-0.55792969 5.97644531 -1.26820313 5.98804688 -2 6 C-2.33 4.68 -2.66 3.36 -3 2 C-2.01 1.34 -1.02 0.68 0 0 Z " fill="#D8D6C3" transform="translate(156,41)"/>
<path d="M0 0 C0.66 0 1.32 0 2 0 C1.67 1.32 1.34 2.64 1 4 C1.62648437 4.02578125 2.25296875 4.0515625 2.8984375 4.078125 C4.12433594 4.16320312 4.12433594 4.16320312 5.375 4.25 C6.18710938 4.29640625 6.99921875 4.3428125 7.8359375 4.390625 C10 5 10 5 11.2890625 7.046875 C11.64097656 8.01367188 11.64097656 8.01367188 12 9 C9.69 8.67 7.38 8.34 5 8 C4.87625 8.61875 4.7525 9.2375 4.625 9.875 C4 12 4 12 2 14 C1.34 13.34 0.68 12.68 0 12 C0.66 11.67 1.32 11.34 2 11 C1.01 10.01 0.02 9.02 -1 8 C-0.01 8 0.98 8 2 8 C2 7.34 2 6.68 2 6 C1.34 6 0.68 6 0 6 C-0.66 4.68 -1.32 3.36 -2 2 C-1.34 1.34 -0.68 0.68 0 0 Z " fill="#B2833E" transform="translate(162,24)"/>
<path d="M0 0 C0.66 1.32 1.32 2.64 2 4 C3.32 3.01 4.64 2.02 6 1 C6 1.99 6 2.98 6 4 C6.99 4 7.98 4 9 4 C9.33 3.34 9.66 2.68 10 2 C10.66 2.33 11.32 2.66 12 3 C11.34 4.32 10.68 5.64 10 7 C8.68 7 7.36 7 6 7 C7.32 7.33 8.64 7.66 10 8 C10 8.66 10 9.32 10 10 C5.62563349 9.49135273 2.59903281 8.57073772 -1 6 C-1.33 5.34 -1.66 4.68 -2 4 C-4.52733235 3.34444881 -4.52733235 3.34444881 -7 3 C-7 2.67 -7 2.34 -7 2 C-4.69 2 -2.38 2 0 2 C0 1.34 0 0.68 0 0 Z " fill="#BF9D62" transform="translate(147,22)"/>
<path d="M0 0 C7.86885246 -0.39344262 7.86885246 -0.39344262 12 3 C14.20800528 2.78282648 14.20800528 2.78282648 16 2 C16 3.32 16 4.64 16 6 C9.25 7.125 9.25 7.125 7 6 C7 5.34 7 4.68 7 4 C4.69 3.34 2.38 2.68 0 2 C0 1.34 0 0.68 0 0 Z " fill="#CFC291" transform="translate(148,14)"/>
<path d="M0 0 C-0.33 0.99 -0.66 1.98 -1 3 C-2.65 3 -4.3 3 -6 3 C-3.525 4.98 -3.525 4.98 -1 7 C-5.1795645 9.78637633 -7.14668677 8.79562512 -12 8 C-12 7.34 -12 6.68 -12 6 C-12.99 5.67 -13.98 5.34 -15 5 C-11.535 4.505 -11.535 4.505 -8 4 C-7.67 3.01 -7.34 2.02 -7 1 C-4.05697101 -0.96201933 -3.48011144 -1.16003715 0 0 Z " fill="#CCB672" transform="translate(132,22)"/>
<path d="M0 0 C0.66 0 1.32 0 2 0 C5 5.75 5 5.75 5 8 C5.66 8 6.32 8 7 8 C7 8.99 7 9.98 7 11 C6.401875 10.690625 5.80375 10.38125 5.1875 10.0625 C2.91043228 8.89790296 2.91043228 8.89790296 0 8 C0 7.34 0 6.68 0 6 C-3 4.66666667 -3 4.66666667 -6 6 C-6 5.34 -6 4.68 -6 4 C-6.66 4 -7.32 4 -8 4 C-8 3.34 -8 2.68 -8 2 C-6.68 2 -5.36 2 -4 2 C-1.1490712 1.2981424 -1.1490712 1.2981424 0 0 Z " fill="#E9E1B7" transform="translate(132,17)"/>
<path d="M0 0 C0.80566406 0.04833984 1.61132812 0.09667969 2.44140625 0.14648438 C3.28316406 0.20255859 4.12492188 0.25863281 4.9921875 0.31640625 C6.26642578 0.3947168 6.26642578 0.3947168 7.56640625 0.47460938 C9.66697874 0.60442003 11.76712941 0.74102365 13.8671875 0.87890625 C11.29202128 3.51637488 9.32387354 4.09778124 5.7578125 4.171875 C4.21066519 4.15203978 2.66365354 4.11641635 1.1171875 4.06640625 C0.32441406 4.05287109 -0.46835938 4.03933594 -1.28515625 4.02539062 C-3.23466814 3.99015848 -5.18382876 3.93635446 -7.1328125 3.87890625 C-6.8028125 2.88890625 -6.4728125 1.89890625 -6.1328125 0.87890625 C-3.77622853 -0.29938574 -2.60708014 -0.16523747 0 0 Z " fill="#DADCD2" transform="translate(139.1328125,44.12109375)"/>
<path d="M0 0 C0.66 0 1.32 0 2 0 C2 1.65 2 3.3 2 5 C1.01 5.495 1.01 5.495 0 6 C0.33 7.65 0.66 9.3 1 11 C-0.98 11 -2.96 11 -5 11 C-5 9.68 -5 8.36 -5 7 C-4.34 6.67 -3.68 6.34 -3 6 C-3.639375 5.731875 -4.27875 5.46375 -4.9375 5.1875 C-7 4 -7 4 -8 1 C-3.545 1.99 -3.545 1.99 1 3 C0.67 2.01 0.34 1.02 0 0 Z " fill="#E3C282" transform="translate(173,30)"/>
<path d="M0 0 C0.66 0.66 1.32 1.32 2 2 C1.01 2.66 0.02 3.32 -1 4 C-1 4.66 -1 5.32 -1 6 C-3.31 5.67 -5.62 5.34 -8 5 C-8 3.35 -8 1.7 -8 0 C-8.66 -0.33 -9.32 -0.66 -10 -1 C-6.18029984 -2.46911544 -3.69358471 -1.52561108 0 0 Z " fill="#B9935A" transform="translate(134,32)"/>
<path d="M0 0 C2.375 -0.1875 2.375 -0.1875 5 0 C5.66 0.99 6.32 1.98 7 3 C9.05003955 4.19232613 9.05003955 4.19232613 11 5 C8 7 8 7 5 8 C2.8125 7.5625 2.8125 7.5625 1 7 C1.33 5.68 1.66 4.36 2 3 C1.34 3 0.68 3 0 3 C0 2.01 0 1.02 0 0 Z " fill="#A57D31" transform="translate(140,25)"/>
<path d="M0 0 C1.65 0 3.3 0 5 0 C5 0.66 5 1.32 5 2 C5.99 1.67 6.98 1.34 8 1 C10.18218594 0.72479438 12.37112386 0.5010318 14.5625 0.3125 C15.71878906 0.20550781 16.87507813 0.09851562 18.06640625 -0.01171875 C21 0 21 0 23 2 C21.81921875 2.13277344 20.6384375 2.26554687 19.421875 2.40234375 C17.86456738 2.5805898 16.30727658 2.75898293 14.75 2.9375 C13.58404297 3.06801758 13.58404297 3.06801758 12.39453125 3.20117188 C11.26337891 3.33168945 11.26337891 3.33168945 10.109375 3.46484375 C9.41811523 3.543396 8.72685547 3.62194824 8.01464844 3.70288086 C5.96304687 4.00544983 4.00217465 4.46412384 2 5 C2 4.01 2 3.02 2 2 C1.34 2 0.68 2 0 2 C0 1.34 0 0.68 0 0 Z " fill="#F3E0C2" transform="translate(138,37)"/>
<path d="M0 0 C2 5.625 2 5.625 2 9 C1.34 9 0.68 9 0 9 C-2.04169485 6.09451118 -3 4.59857954 -3 1 C-3.66 1.66 -4.32 2.32 -5 3 C-7 4.1875 -7 4.1875 -9 5 C-9.66 4.67 -10.32 4.34 -11 4 C-11 3.34 -11 2.68 -11 2 C-7.36576791 -0.32590854 -4.22911669 -0.16265833 0 0 Z " fill="#F7F6E5" transform="translate(137,16)"/>
<path d="M0 0 C1.32 0 2.64 0 4 0 C4 0.99 4 1.98 4 3 C2.35 3 0.7 3 -1 3 C-1 3.66 -1 4.32 -1 5 C-0.34 5 0.32 5 1 5 C1 5.66 1 6.32 1 7 C-6.75 8.125 -6.75 8.125 -9 7 C-6.47043472 3.9083091 -3.77545388 3.09068668 0 2 C0 1.34 0 0.68 0 0 Z " fill="#BC9A79" transform="translate(139,34)"/>
<path d="M0 0 C2.31 0.66 4.62 1.32 7 2 C7 2.66 7 3.32 7 4 C9.97 4 12.94 4 16 4 C16 4.66 16 5.32 16 6 C14.68 6 13.36 6 12 6 C12 6.66 12 7.32 12 8 C8 8 8 8 5 6 C5 5.01 5 4.02 5 3 C3.35 2.67 1.7 2.34 0 2 C0 1.34 0 0.68 0 0 Z " fill="#F8ECD2" transform="translate(148,16)"/>
<path d="M0 0 C0 0.99 0 1.98 0 3 C-6.58489882 6.95093929 -14.59625265 6.12049498 -22 6 C-22 5.67 -22 5.34 -22 5 C-13.585 4.01 -13.585 4.01 -5 3 C-5 2.34 -5 1.68 -5 1 C-3 0 -3 0 0 0 Z " fill="#DBDCD6" transform="translate(173,141)"/>
<path d="M0 0 C1.69752187 0.25245197 3.38471545 0.57645775 5.0625 0.9375 C5.98160156 1.13214844 6.90070313 1.32679687 7.84765625 1.52734375 C8.91306641 1.76130859 8.91306641 1.76130859 10 2 C10 2.66 10 3.32 10 4 C9.030625 4.12375 8.06125 4.2475 7.0625 4.375 C5.5465625 4.684375 5.5465625 4.684375 4 5 C3.67 5.66 3.34 6.32 3 7 C2.01 7 1.02 7 0 7 C-0.38133299 5.0085944 -0.71325582 3.00720923 -1 1 C-0.67 0.67 -0.34 0.34 0 0 Z " fill="#F9F6E6" transform="translate(166,16)"/>
<path d="M0 0 C0.33 0 0.66 0 1 0 C1.08636719 0.69867187 1.17273438 1.39734375 1.26171875 2.1171875 C1.68169658 4.83741089 2.14346347 7.38256349 3 10 C5.38788787 11.62332335 5.38788787 11.62332335 8 12 C8.66 12.66 9.32 13.32 10 14 C2.62871928 12.60543338 2.62871928 12.60543338 0.3125 10.375 C-1.47328841 7.14357335 -1.27404936 4.63115407 -1 1 C-0.67 0.67 -0.34 0.34 0 0 Z " fill="#828381" transform="translate(109,26)"/>
<path d="M0 0 C1.32 0.33 2.64 0.66 4 1 C3.01 1.33 2.02 1.66 1 2 C1 3.32 1 4.64 1 6 C2.98 6 4.96 6 7 6 C7 6.33 7 6.66 7 7 C3.37 7.33 -0.26 7.66 -4 8 C-4.33 7.01 -4.66 6.02 -5 5 C-3.68 4.67 -2.36 4.34 -1 4 C-0.67 2.68 -0.34 1.36 0 0 Z " fill="#9F7F38" transform="translate(167,35)"/>
<path d="M0 0 C0.66 0 1.32 0 2 0 C2.36923077 7.50769231 2.36923077 7.50769231 0.5 10 C0.005 10.33 -0.49 10.66 -1 11 C-2.23802788 7.423475 -1.81278541 4.65753437 -1 1 C-0.67 0.67 -0.34 0.34 0 0 Z " fill="#C2C2C0" transform="translate(175,138)"/>
<path d="M0 0 C0.33 0.66 0.66 1.32 1 2 C3.32156597 2.40729228 5.6568787 2.74438677 8 3 C8 3.66 8 4.32 8 5 C5.03 5 2.06 5 -1 5 C-1.33 5.66 -1.66 6.32 -2 7 C-2.125 4.625 -2.125 4.625 -2 2 C-1.34 1.34 -0.68 0.68 0 0 Z " fill="#F1EDDB" transform="translate(112,25)"/>
<path d="M0 0 C2.43929746 1.92576115 4.80090595 3.80090595 7 6 C6.34 6 5.68 6 5 6 C5 6.66 5 7.32 5 8 C3.02 7.34 1.04 6.68 -1 6 C-1.042721 4.33388095 -1.04063832 2.66617115 -1 1 C-0.67 0.67 -0.34 0.34 0 0 Z " fill="#DBDCD7" transform="translate(133,147)"/>
<path d="M0 0 C0.5775 0.556875 1.155 1.11375 1.75 1.6875 C1.75 2.3475 1.75 3.0075 1.75 3.6875 C2.74 4.0175 3.73 4.3475 4.75 4.6875 C1.75 5.6875 1.75 5.6875 -1.875 4.4375 C-5.25 2.6875 -5.25 2.6875 -6.25 -0.3125 C-3.46686179 -1.40587572 -2.65053646 -1.54614627 0 0 Z " fill="#B2B3AE" transform="translate(126.25,148.3125)"/>
<path d="M0 0 C0.99 0.33 1.98 0.66 3 1 C2.64950425 4.24208567 2.43778819 5.61527704 -0.0625 7.8125 C-0.701875 8.204375 -1.34125 8.59625 -2 9 C-2.6875 6.75 -2.6875 6.75 -3 4 C-1.5625 1.6875 -1.5625 1.6875 0 0 Z " fill="#F7F9F8" transform="translate(107,21)"/>
<path d="M0 0 C1.8871875 0.061875 1.8871875 0.061875 3.8125 0.125 C3.4825 1.445 3.1525 2.765 2.8125 4.125 C-0.4875 3.465 -3.7875 2.805 -7.1875 2.125 C-4.09861478 0.06574319 -3.47814073 -0.1140374 0 0 Z " fill="#F6EDE4" transform="translate(136.1875,40.875)"/>
<path d="M0 0 C2.7822335 2.26056472 3.90092877 3.4055726 4.5 7 C3.90092877 10.5944274 2.7822335 11.73943528 0 14 C-0.66 13.67 -1.32 13.34 -2 13 C-1.505 12.649375 -1.01 12.29875 -0.5 11.9375 C1.7579216 9.02101794 1.25596941 6.58357181 1 3 C0.67 2.01 0.34 1.02 0 0 Z " fill="#6E706A" transform="translate(187,23)"/>
<path d="M0 0 C5.27315333 0.4452885 10.01770224 1.08373163 15 3 C15 3.33 15 3.66 15 4 C9.158256 4.35050464 5.1468192 4.16727335 0 1 C0 0.67 0 0.34 0 0 Z " fill="#BCBEB2" transform="translate(132,144)"/>
<path d="M0 0 C0 0.66 0 1.32 0 2 C-0.66 2 -1.32 2 -2 2 C-2 2.66 -2 3.32 -2 4 C-5 6 -5 6 -8 6 C-8.33 5.01 -8.66 4.02 -9 3 C-5.55930376 0.70620251 -4.27709699 0 0 0 Z " fill="#E4BA84" transform="translate(141,32)"/>
<path d="M0 0 C1.65 0.33 3.3 0.66 5 1 C5 2.65 5 4.3 5 6 C2.69 6 0.38 6 -2 6 C-2 5.34 -2 4.68 -2 4 C-1.34 4 -0.68 4 0 4 C0 2.68 0 1.36 0 0 Z " fill="#F1F1DB" transform="translate(176,31)"/>
<path d="M0 0 C0.433125 0.45375 0.86625 0.9075 1.3125 1.375 C3.10798342 3.20024334 3.10798342 3.20024334 6 5 C5 6 5 6 3.15234375 6.09765625 C1.1015625 6.06510417 -0.94921875 6.03255208 -3 6 C-2.67 4.68 -2.34 3.36 -2 2 C-1.34 2 -0.68 2 0 2 C0 1.34 0 0.68 0 0 Z " fill="#E4B971" transform="translate(159,30)"/>
<path d="M0 0 C1.65 0 3.3 0 5 0 C3.87994369 3.36016893 2.62788203 4.69064913 0 7 C-0.66 7 -1.32 7 -2 7 C-2.33 5.68 -2.66 4.36 -3 3 C-2.34 3 -1.68 3 -1 3 C-0.67 2.01 -0.34 1.02 0 0 Z " fill="#CCC4B9" transform="translate(179,25)"/>
<path d="M0 0 C0.33 0.99 0.66 1.98 1 3 C1.66 3 2.32 3 3 3 C2.67 4.32 2.34 5.64 2 7 C0.35 7.33 -1.3 7.66 -3 8 C-3 6.35 -3 4.7 -3 3 C-2.01 3 -1.02 3 0 3 C0 2.01 0 1.02 0 0 Z " fill="#AE8735" transform="translate(139,25)"/>
<path d="M0 0 C0.66 0.33 1.32 0.66 2 1 C1.67 1.99 1.34 2.98 1 4 C2.65 4.33 4.3 4.66 6 5 C5.01 5.66 4.02 6.32 3 7 C2.401875 6.67 1.80375 6.34 1.1875 6 C-1.05386471 4.79212012 -1.05386471 4.79212012 -4 5 C-2.68 3.35 -1.36 1.7 0 0 Z " fill="#CBC8BF" transform="translate(113,21)"/>
<path d="M0 0 C0.33 0.66 0.66 1.32 1 2 C2.65 2 4.3 2 6 2 C6 2.66 6 3.32 6 4 C4.02 4.66 2.04 5.32 0 6 C-0.38218767 4.34385343 -0.71395102 2.67542976 -1 1 C-0.67 0.67 -0.34 0.34 0 0 Z " fill="#E6DCCD" transform="translate(170,20)"/>
<path d="M0 0 C0.99 0 1.98 0 3 0 C3.66 0.99 4.32 1.98 5 3 C5.99 3 6.98 3 8 3 C7.34 4.32 6.68 5.64 6 7 C5.01 6.67 4.02 6.34 3 6 C3 5.01 3 4.02 3 3 C2.01 2.67 1.02 2.34 0 2 C0 1.34 0 0.68 0 0 Z " fill="#DBCD9B" transform="translate(150,20)"/>
<path d="M0 0 C0 0.99 0 1.98 0 3 C-2.64 3 -5.28 3 -8 3 C-8.33 2.34 -8.66 1.68 -9 1 C-5.8035914 -0.06546953 -3.34252724 -0.07427838 0 0 Z " fill="#F6F6F9" transform="translate(154,9)"/>
<path d="M0 0 C2.35171131 0.59861742 4.6859378 1.26924352 7 2 C7.33 2.66 7.66 3.32 8 4 C4.7 3.67 1.4 3.34 -2 3 C-1.34 2.01 -0.68 1.02 0 0 Z " fill="#DFDFDF" transform="translate(131,155)"/>
<path d="M0 0 C4.29 0.66 8.58 1.32 13 2 C13 2.33 13 2.66 13 3 C8.38 3 3.76 3 -1 3 C-0.67 2.01 -0.34 1.02 0 0 Z " fill="#F1F8F1" transform="translate(140,42)"/>
<path d="M0 0 C0 0.99 0 1.98 0 3 C-2.31 3.33 -4.62 3.66 -7 4 C-7 3.01 -7 2.02 -7 1 C-4 0 -4 0 0 0 Z " fill="#DFC59A" transform="translate(150,35)"/>
<path d="M0 0 C0.33 1.32 0.66 2.64 1 4 C-1.31 4.33 -3.62 4.66 -6 5 C-6.33 4.34 -6.66 3.68 -7 3 C-6.34 3 -5.68 3 -5 3 C-5 2.34 -5 1.68 -5 1 C-3.35 0.67 -1.7 0.34 0 0 Z " fill="#B39682" transform="translate(163,16)"/>
<path d="M0 0 C2.31 0.66 4.62 1.32 7 2 C6.67 2.66 6.34 3.32 6 4 C4.35 4 2.7 4 1 4 C1 3.34 1 2.68 1 2 C0.34 1.67 -0.32 1.34 -1 1 C-0.67 0.67 -0.34 0.34 0 0 Z " fill="#D7D2CE" transform="translate(123,44)"/>
<path d="M0 0 C0.99 0.33 1.98 0.66 3 1 C2.01 1.495 2.01 1.495 1 2 C1.95865509 4.33075929 1.95865509 4.33075929 5 6 C2.69 6 0.38 6 -2 6 C-2 4.35 -2 2.7 -2 1 C-1.34 0.67 -0.68 0.34 0 0 Z " fill="#EEEEE1" transform="translate(172,42)"/>
<path d="M0 0 C0.99 1.32 1.98 2.64 3 4 C-3.75 5.125 -3.75 5.125 -6 4 C-3.94766315 1.7522025 -2.99332739 0.9977758 0 0 Z " fill="#9A7863" transform="translate(136,37)"/>
<path d="M0 0 C0.99 0.33 1.98 0.66 3 1 C3 1.66 3 2.32 3 3 C3.66 3 4.32 3 5 3 C5 3.66 5 4.32 5 5 C2.69 5 0.38 5 -2 5 C-1.34 3.35 -0.68 1.7 0 0 Z " fill="#EFC792" transform="translate(159,27)"/>
<path d="M0 0 C0.66 0 1.32 0 2 0 C0.92598892 2.91517292 0.22189824 4.77810176 -2 7 C-4.625 6.625 -4.625 6.625 -7 6 C-6.67 5.34 -6.34 4.68 -6 4 C-4.68 4 -3.36 4 -2 4 C-1.34 2.68 -0.68 1.36 0 0 Z " fill="#F2D6A4" transform="translate(159,24)"/>
<path d="M0 0 C1.98 0 3.96 0 6 0 C6 0.66 6 1.32 6 2 C5.01 2 4.02 2 3 2 C3 2.66 3 3.32 3 4 C1.68 4 0.36 4 -1 4 C-0.67 2.68 -0.34 1.36 0 0 Z " fill="#D6B98A" transform="translate(164,24)"/>
<path d="M0 0 C1.4540625 0.0309375 1.4540625 0.0309375 2.9375 0.0625 C3.2675 1.7125 3.5975 3.3625 3.9375 5.0625 C3.6075 4.4025 3.2775 3.7425 2.9375 3.0625 C1.9475 3.3925 0.9575 3.7225 -0.0625 4.0625 C-2.25 2.625 -2.25 2.625 -4.0625 1.0625 C-3.0625 0.0625 -3.0625 0.0625 0 0 Z " fill="#9E7A1A" transform="translate(129.0625,23.9375)"/>
<path d="M0 0 C0.33 0.66 0.66 1.32 1 2 C3.52733235 2.65555119 3.52733235 2.65555119 6 3 C3 5 3 5 0 5 C0 4.34 0 3.68 0 3 C-0.99 2.67 -1.98 2.34 -3 2 C-2.01 1.34 -1.02 0.68 0 0 Z " fill="#FAF3E2" transform="translate(147,16)"/>
<path d="M0 0 C0 0.99 0 1.98 0 3 C-1.8125 4.0625 -1.8125 4.0625 -4 5 C-4.99 4.67 -5.98 4.34 -7 4 C-6.34 4 -5.68 4 -5 4 C-5 3.01 -5 2.02 -5 1 C-3 0 -3 0 0 0 Z " fill="#D5D4D0" transform="translate(173,141)"/>
<path d="M0 0 C1.65 0 3.3 0 5 0 C5 1.65 5 3.3 5 5 C3.0625 4.1875 3.0625 4.1875 1 3 C0.67 2.01 0.34 1.02 0 0 Z " fill="#BCBCB1" transform="translate(123,136)"/>
<path d="M0 0 C1.32 0 2.64 0 4 0 C4.66 1.32 5.32 2.64 6 4 C4.02 4 2.04 4 0 4 C0 2.68 0 1.36 0 0 Z " fill="#E5C29E" transform="translate(168,37)"/>
<path d="M0 0 C2.97 0 5.94 0 9 0 C7.60804085 2.7839183 5.84424221 2.97898997 3 4 C2.01 2.68 1.02 1.36 0 0 Z " fill="#FBF3D3" transform="translate(151,39)"/>
<path d="M0 0 C2.31 0.66 4.62 1.32 7 2 C6.01 2.99 5.02 3.98 4 5 C1 3 1 3 0 0 Z " fill="#E7E8E5" transform="translate(133,146)"/>
<path d="M0 0 C1.65 1.32 3.3 2.64 5 4 C4.34 4 3.68 4 3 4 C2.67 4.99 2.34 5.98 2 7 C0.4375 5.75 0.4375 5.75 -1 4 C-0.6875 1.8125 -0.6875 1.8125 0 0 Z " fill="#DEB3A8" transform="translate(128,35)"/>
<path d="M0 0 C0.99 0.66 1.98 1.32 3 2 C2.01 2.66 1.02 3.32 0 4 C0 4.66 0 5.32 0 6 C-0.99 6 -1.98 6 -3 6 C-2.42655063 3.13275314 -2.1385485 2.1385485 0 0 Z " fill="#B5853F" transform="translate(133,32)"/>
<path d="M0 0 C1.65 0 3.3 0 5 0 C5 1.65 5 3.3 5 5 C4.67 4.34 4.34 3.68 4 3 C2.35 3 0.7 3 -1 3 C-0.67 2.01 -0.34 1.02 0 0 Z " fill="#DDC0AC" transform="translate(121,32)"/>
<path d="M0 0 C0.66 0.66 1.32 1.32 2 2 C2.99 2.33 3.98 2.66 5 3 C5 3.66 5 4.32 5 5 C4.01 5.33 3.02 5.66 2 6 C1.01 5.01 0.02 4.02 -1 3 C-0.67 2.01 -0.34 1.02 0 0 Z " fill="#EBEBE8" transform="translate(112,31)"/>
<path d="M0 0 C1.65 0 3.3 0 5 0 C5.33 0.99 5.66 1.98 6 3 C4.02 3 2.04 3 0 3 C0 2.01 0 1.02 0 0 Z " fill="#724325" transform="translate(140,25)"/>
</svg>
